<?xml version="1.0" encoding="utf-8"?>
<!-- Generator: Adobe Illustrator 25.4.1, SVG Export Plug-In . SVG Version: 6.00 Build 0)  -->
<svg version="1.1" id="Layer_1" xmlns="http://www.w3.org/2000/svg" xmlns:xlink="http://www.w3.org/1999/xlink" x="0px" y="0px"
	 viewBox="0 0 500 500" style="enable-background:new 0 0 500 500;" xml:space="preserve">
<style type="text/css">
	.st0{fill:#FFFFFF;}
	.st1{fill:#004097;}
	.st2{fill:#00D2FF;}
</style>
<g>
	<g>
		<path class="st0" d="M114.56,191.49c-1.89,0.08-2.92,1.32-3.7,2.82c-1.52,2.9-2.72,5.94-3.79,9.03c-1.44,4.15-2.56,8.4-3.68,12.65
			c-2.7-0.4-3.56,0.12-5.17,2.45c-0.63,0.91-1.37,1.84-2.8,2.05c-3.1,0.45-5.67,2.04-7.47,4.63c-2.06,2.97-3.43,6.37-5.77,9.18
			c-1.65,1.99-3.24,3.99-5.83,4.84c-0.68,0.22-1.07,0.77-0.59,1.44c0.57,0.8,1.27,1.44,2.34,1.61c1.46,0.23,2.57-0.58,3.78-1.11
			c0.2-0.09,0.39-0.26,0.56-0.01c0.12,0.19-0.05,0.33-0.17,0.46c-0.86,0.94-1.73,1.86-2.91,2.4c-0.87,0.4-0.9,0.64-0.15,1.28
			c0.69,0.59,1.37,1.19,2.08,1.76c2.13,1.73,3.1,2.15,5.66-0.32c0.3-0.28,0.56-0.64,1.1-0.81c-0.11,1.28-0.8,2.23-1.24,3.27
			c-0.43,0.99-0.23,1.8,0.74,2.28c2.4,1.2,4.83,2.35,7.45,3.03c0.87,0.23,1.34-0.07,1.51-0.88c0.16-0.77,0.48-1.46,1.01-2.4
			c-0.08,0.92-0.17,1.53-0.17,2.13c0.01,0.88,0.26,1.74,1.24,1.93c1.06,0.2,2.12,0.46,3.22,0.47c1.5,0.02,1.61-0.04,1.89-1.56
			c0.25-1.41,0.64-2.78,1.25-4.1c0.08,1.33-0.06,2.66,0.18,3.98c0.1,0.56,0.28,1.04,0.72,1.42c0.7,0.61,1.47,0.35,2.17,0.13
			c0.75-0.24,0.36-0.92,0.32-1.41c-0.07-0.71-0.06-1.4,0.18-2.2c0.47,0.49,0.38,1.04,0.51,1.5c0.34,1.16,1.11,1.59,2.24,1.21
			c0.24-0.08,0.47-0.19,0.71-0.26c1.44-0.38,1.42-0.37,0.81-1.7c-1.54-3.33-1.73-6.77-0.69-10.28c0.44-1.49,0.95-2.96,1.4-4.45
			c1.16-3.84,0.76-7.49-1.7-10.71c-1.16-1.52-1.32-2.96-0.74-4.68c0.46-1.37,0.04-2.57-1.07-3.51c-0.27-0.23-0.62-0.4-0.74-0.78
			c3.03-6.04,5.93-12.13,8.04-18.56c0.5-1.51,1.13-3,1.11-4.64C118.37,193.02,116.63,191.4,114.56,191.49z"/>
		<path class="st0" d="M63.31,224.1c0,2.44,0.2,4.68,0.6,6.7c0.4,2.02,1.02,3.93,1.88,5.73c0.85,1.8,1.96,3.59,3.33,5.37
			c1.18,1.54,2.59,3.15,4.21,4.85c0.42,0.44,0.41,1.14-0.03,1.55l-2.55,2.38c-0.41,0.38-1.05,0.39-1.47,0.03
			c-2.58-2.25-4.83-4.59-6.73-7.02c-2.09-2.66-3.71-5.59-4.84-8.78c-1.13-3.19-1.7-6.79-1.7-10.81s0.57-7.63,1.7-10.83
			c1.13-3.2,2.74-6.12,4.84-8.78c1.91-2.42,4.15-4.76,6.73-7.01c0.42-0.37,1.06-0.35,1.47,0.03l2.55,2.38
			c0.44,0.41,0.45,1.11,0.03,1.55c-1.54,1.62-2.9,3.19-4.06,4.72c-1.36,1.77-2.48,3.57-3.36,5.39c-0.88,1.82-1.53,3.75-1.96,5.79
			C63.52,219.39,63.31,221.64,63.31,224.1z"/>
		<path class="st0" d="M136.55,224.1c0-2.46-0.21-4.71-0.64-6.75c-0.43-2.04-1.08-3.97-1.96-5.79c-0.88-1.82-2-3.62-3.35-5.39
			c-1.17-1.53-2.52-3.1-4.06-4.72c-0.42-0.44-0.41-1.14,0.03-1.55l2.55-2.38c0.41-0.38,1.05-0.39,1.47-0.03
			c2.58,2.25,4.83,4.58,6.73,7.01c2.09,2.65,3.7,5.58,4.84,8.78c1.13,3.2,1.7,6.81,1.7,10.83s-0.56,7.63-1.7,10.81
			c-1.13,3.19-2.74,6.11-4.84,8.78c-1.91,2.43-4.15,4.77-6.73,7.02c-0.42,0.37-1.06,0.35-1.47-0.03l-2.55-2.38
			c-0.44-0.41-0.45-1.11-0.03-1.55c1.62-1.7,3.03-3.32,4.21-4.85c1.37-1.77,2.48-3.56,3.33-5.37c0.85-1.8,1.48-3.71,1.88-5.73
			C136.35,228.78,136.55,226.54,136.55,224.1z"/>
	</g>
	<g>
		<path class="st0" d="M183.62,294.09c-1.14,0.76-2.53,1.38-4.16,1.86c-1.63,0.48-3.39,0.73-5.29,0.73c-3.76,0-6.59-0.97-8.49-2.92
			c-1.9-1.95-2.85-4.54-2.85-7.78v-15.53h-6.69v-5.44h6.69v-6.77l7.68-0.93v7.7h10.18l-0.79,5.44h-9.39v15.5
			c0,1.59,0.39,2.75,1.16,3.49c0.78,0.74,2.03,1.1,3.75,1.1c1.11,0,2.12-0.13,3.04-0.39c0.92-0.26,1.76-0.6,2.52-1L183.62,294.09z"
			/>
		<path class="st0" d="M207.26,265.02v25.35h8.11v5.44h-24.8v-5.44h9.01v-19.92h-8.72v-5.44H207.26z M202.29,249.49
			c1.41,0,2.56,0.44,3.45,1.31c0.88,0.87,1.32,1.96,1.32,3.26c0,1.3-0.44,2.39-1.32,3.27c-0.88,0.88-2.03,1.32-3.45,1.32
			s-2.57-0.44-3.46-1.32c-0.89-0.88-1.34-1.97-1.34-3.27c0-1.3,0.45-2.38,1.34-3.26S200.87,249.49,202.29,249.49z"/>
		<path class="st0" d="M239.91,251.9l7.68,0.81v43.09h-6.8l-0.47-3.63c-0.95,1.36-2.14,2.45-3.58,3.27c-1.43,0.82-3.1,1.24-5,1.24
			c-2.6,0-4.74-0.68-6.44-2.03c-1.7-1.36-2.96-3.26-3.78-5.71c-0.82-2.45-1.24-5.31-1.24-8.56c0-3.14,0.48-5.93,1.45-8.37
			c0.97-2.44,2.37-4.36,4.2-5.76c1.83-1.4,4.01-2.09,6.53-2.09c1.51,0,2.89,0.26,4.13,0.79c1.24,0.52,2.35,1.3,3.31,2.33V251.9z
			 M234.53,269.87c-1.94,0-3.46,0.84-4.58,2.51c-1.11,1.68-1.67,4.35-1.67,8.01c0,2.58,0.23,4.64,0.7,6.18s1.12,2.65,1.98,3.33
			s1.86,1.02,3.02,1.02c1.28,0,2.41-0.38,3.39-1.15c0.98-0.77,1.83-1.72,2.54-2.86V272.9c-0.72-0.95-1.52-1.69-2.4-2.22
			S235.64,269.87,234.53,269.87z"/>
		<path class="st0" d="M282.45,265.02l-10.44,30.85c-0.85,2.52-1.96,4.68-3.31,6.48c-1.36,1.8-3.07,3.23-5.13,4.29
			c-2.06,1.06-4.59,1.68-7.57,1.88l-0.96-5.55c2.07-0.29,3.73-0.73,4.97-1.31c1.24-0.58,2.23-1.35,2.98-2.3
			c0.75-0.95,1.39-2.13,1.93-3.55h-2.62l-10.09-30.79h8.11l6.98,25.67l7.27-25.67H282.45z"/>
		<path class="st0" d="M314.96,265.02l-10.58,30.79h-9.01l-10.64-30.79h8.26l7.01,24.66l7.15-24.66H314.96z"/>
		<path class="st0" d="M326.13,282.75c0.15,1.92,0.6,3.48,1.32,4.68c0.73,1.2,1.66,2.08,2.81,2.65c1.14,0.56,2.41,0.84,3.81,0.84
			c1.47,0,2.86-0.23,4.16-0.7c1.3-0.47,2.58-1.11,3.84-1.95l3.2,4.39c-1.43,1.2-3.14,2.17-5.13,2.91c-1.99,0.74-4.17,1.1-6.56,1.1
			c-3.33,0-6.14-0.69-8.42-2.06c-2.28-1.38-4-3.29-5.16-5.73c-1.16-2.44-1.74-5.25-1.74-8.43c0-3.06,0.57-5.82,1.71-8.29
			c1.14-2.46,2.79-4.41,4.94-5.86c2.15-1.44,4.75-2.17,7.79-2.17c2.83,0,5.27,0.62,7.33,1.86c2.05,1.24,3.64,3.02,4.77,5.34
			c1.12,2.32,1.69,5.1,1.69,8.36c0,0.52-0.01,1.06-0.04,1.6c-0.03,0.54-0.06,1.03-0.1,1.45H326.13z M332.73,269.55
			c-1.86,0-3.39,0.66-4.58,1.99s-1.9,3.43-2.11,6.29h12.97c-0.04-2.6-0.58-4.63-1.61-6.09C336.36,270.28,334.8,269.55,332.73,269.55
			z"/>
		<path class="st0" d="M352.38,295.81v-5.32h4.33v-20.18h-4.33v-5.29h10.18l1.42,7.07c1.12-2.62,2.54-4.59,4.25-5.92
			c1.71-1.33,3.85-1.99,6.43-1.99c0.99,0,1.87,0.08,2.63,0.23c0.77,0.16,1.5,0.36,2.2,0.61l-2.3,6.45c-0.6-0.15-1.17-0.28-1.72-0.36
			c-0.54-0.09-1.15-0.13-1.83-0.13c-2.13,0-3.99,0.83-5.57,2.49c-1.58,1.66-2.81,3.9-3.68,6.73v10.29h6.13v5.32H352.38z M373,277.02
			v-8.17l1.05-3.84h5.44l-1.37,12.01H373z"/>
		<path class="st0" d="M396.32,291.01c1.8,0,3.25-0.31,4.35-0.94c1.09-0.63,1.64-1.52,1.64-2.66c0-0.76-0.18-1.4-0.54-1.92
			c-0.36-0.52-1.06-1.01-2.11-1.47c-1.05-0.46-2.62-0.96-4.71-1.53c-1.98-0.5-3.71-1.13-5.19-1.88c-1.48-0.75-2.64-1.71-3.46-2.89
			c-0.82-1.18-1.24-2.67-1.24-4.48c0-1.8,0.5-3.39,1.51-4.75c1.01-1.37,2.47-2.43,4.38-3.2c1.91-0.77,4.21-1.15,6.91-1.15
			c2.64,0,4.94,0.34,6.92,1.03c1.98,0.69,3.67,1.55,5.09,2.57l-3.14,4.68c-1.24-0.79-2.58-1.44-4.03-1.93
			c-1.44-0.49-3-0.74-4.67-0.74c-1.8,0-3.12,0.26-3.94,0.79c-0.82,0.52-1.24,1.25-1.24,2.18c0,0.66,0.21,1.22,0.62,1.67
			c0.42,0.46,1.17,0.89,2.27,1.31c1.09,0.42,2.66,0.92,4.7,1.5c2,0.54,3.74,1.18,5.22,1.92c1.48,0.74,2.63,1.72,3.44,2.94
			s1.22,2.82,1.22,4.8c0,2.23-0.65,4.07-1.95,5.52c-1.3,1.45-3.01,2.53-5.13,3.24c-2.12,0.71-4.42,1.06-6.91,1.06
			c-2.91,0-5.45-0.42-7.62-1.25c-2.17-0.83-4.01-1.91-5.52-3.23l3.98-4.48c1.2,0.95,2.57,1.73,4.11,2.35
			C392.84,290.7,394.51,291.01,396.32,291.01z"/>
		<path class="st0" d="M423.65,282.75c0.15,1.92,0.6,3.48,1.32,4.68c0.73,1.2,1.66,2.08,2.81,2.65c1.14,0.56,2.41,0.84,3.81,0.84
			c1.47,0,2.86-0.23,4.16-0.7c1.3-0.47,2.58-1.11,3.84-1.95l3.2,4.39c-1.43,1.2-3.15,2.17-5.13,2.91c-1.99,0.74-4.17,1.1-6.56,1.1
			c-3.33,0-6.14-0.69-8.42-2.06c-2.28-1.38-4-3.29-5.16-5.73c-1.16-2.44-1.74-5.25-1.74-8.43c0-3.06,0.57-5.82,1.72-8.29
			c1.14-2.46,2.79-4.41,4.94-5.86c2.15-1.44,4.75-2.17,7.79-2.17c2.83,0,5.27,0.62,7.33,1.86c2.05,1.24,3.64,3.02,4.77,5.34
			c1.12,2.32,1.69,5.1,1.69,8.36c0,0.52-0.01,1.06-0.04,1.6c-0.03,0.54-0.06,1.03-0.1,1.45H423.65z M430.25,269.55
			c-1.86,0-3.39,0.66-4.58,1.99c-1.19,1.33-1.9,3.43-2.11,6.29h12.97c-0.04-2.6-0.58-4.63-1.61-6.09
			C433.88,270.28,432.32,269.55,430.25,269.55z"/>
	</g>
	<g>
		<path class="st0" d="M178.07,229.84c0,0.98,0.14,1.69,0.43,2.13c0.29,0.44,0.75,0.77,1.39,1l-1.37,4.26
			c-1.36-0.14-2.52-0.49-3.47-1.02c-0.95-0.54-1.69-1.34-2.2-2.42c-0.96,1.17-2.18,2.04-3.64,2.62c-1.47,0.58-3,0.87-4.6,0.87
			c-2.6,0-4.66-0.74-6.18-2.21s-2.28-3.39-2.28-5.75c0-2.71,1.06-4.8,3.19-6.26c2.12-1.47,5.13-2.2,9.03-2.2h3.56v-1.37
			c0-1.51-0.46-2.6-1.39-3.28c-0.93-0.68-2.27-1.02-4.01-1.02c-0.82,0-1.84,0.11-3.07,0.32c-1.23,0.22-2.49,0.55-3.79,1l-1.51-4.35
			c1.62-0.61,3.25-1.06,4.89-1.35c1.64-0.29,3.14-0.43,4.48-0.43c3.57,0,6.23,0.76,7.96,2.27c1.73,1.52,2.6,3.66,2.6,6.43V229.84z
			 M166.68,232.68c0.96,0,1.94-0.27,2.92-0.82c0.99-0.54,1.76-1.31,2.32-2.28v-4.95h-2.5c-2.36,0-4.06,0.38-5.11,1.13
			c-1.05,0.75-1.58,1.82-1.58,3.2c0,1.19,0.34,2.1,1.01,2.75C164.42,232.35,165.39,232.68,166.68,232.68z"/>
		<path class="st0" d="M197.79,210.37c2.24,0,4.04,0.55,5.4,1.65c1.35,1.1,2.34,2.65,2.96,4.65c0.62,2,0.93,4.37,0.93,7.09
			c0,2.61-0.38,4.94-1.13,6.97c-0.75,2.04-1.86,3.63-3.31,4.8c-1.45,1.16-3.23,1.74-5.35,1.74c-2.6,0-4.7-0.92-6.3-2.76v11.85
			l-6.35,0.67v-35.94h5.58l0.34,3.1c1.01-1.31,2.14-2.28,3.39-2.9C195.19,210.67,196.48,210.37,197.79,210.37z M195.94,215.13
			c-1.07,0-2.02,0.32-2.82,0.96c-0.81,0.64-1.52,1.43-2.13,2.38v11.4c0.58,0.87,1.23,1.51,1.97,1.95c0.74,0.43,1.57,0.65,2.5,0.65
			c1.62,0,2.86-0.68,3.71-2.03c0.86-1.35,1.29-3.55,1.29-6.6c0-2.15-0.17-3.86-0.52-5.13c-0.34-1.27-0.85-2.19-1.53-2.74
			C197.74,215.4,196.92,215.13,195.94,215.13z"/>
		<path class="st0" d="M211.76,236.55v-4.4h3.58v-16.69h-3.58v-4.38h8.42l1.18,5.84c0.93-2.16,2.1-3.8,3.51-4.89
			c1.41-1.1,3.18-1.65,5.31-1.65c0.82,0,1.54,0.06,2.18,0.19c0.63,0.13,1.24,0.3,1.82,0.5l-1.9,5.34c-0.5-0.13-0.97-0.23-1.42-0.3
			c-0.45-0.07-0.95-0.11-1.51-0.11c-1.76,0-3.3,0.69-4.6,2.06c-1.31,1.37-2.32,3.23-3.04,5.57v8.51h5.07v4.4H211.76z M228.81,221.02
			v-6.76l0.87-3.17h4.5l-1.13,9.93H228.81z"/>
		<path class="st0" d="M243.81,225.75c0.13,1.59,0.49,2.88,1.09,3.87c0.6,0.99,1.37,1.72,2.32,2.19c0.95,0.47,2,0.7,3.15,0.7
			c1.22,0,2.36-0.19,3.44-0.58c1.07-0.38,2.13-0.92,3.17-1.61l2.64,3.63c-1.19,0.99-2.6,1.8-4.24,2.4
			c-1.64,0.61-3.45,0.91-5.42,0.91c-2.76,0-5.08-0.57-6.96-1.71c-1.88-1.14-3.31-2.72-4.27-4.74c-0.96-2.02-1.44-4.34-1.44-6.97
			c0-2.53,0.47-4.82,1.42-6.85c0.95-2.03,2.31-3.65,4.09-4.84c1.78-1.19,3.93-1.79,6.44-1.79c2.34,0,4.36,0.51,6.06,1.54
			c1.7,1.03,3.01,2.5,3.94,4.41c0.93,1.92,1.4,4.22,1.4,6.91c0,0.43-0.01,0.87-0.04,1.32c-0.02,0.45-0.05,0.85-0.08,1.2H243.81z
			 M249.27,214.84c-1.54,0-2.8,0.55-3.79,1.65c-0.99,1.1-1.57,2.83-1.74,5.21h10.72c-0.03-2.15-0.48-3.83-1.33-5.04
			C252.27,215.44,250.99,214.84,249.27,214.84z"/>
		<path class="st0" d="M265.28,236.55v-25.46h5.53l0.46,3.15c1.09-1.28,2.32-2.25,3.68-2.9c1.36-0.65,2.83-0.97,4.4-0.97
			c2.29,0,4.04,0.66,5.24,1.98c1.2,1.32,1.8,3.18,1.8,5.57v18.63h-6.35v-16.16c0-1.28-0.08-2.31-0.24-3.09
			c-0.16-0.78-0.47-1.34-0.91-1.68c-0.45-0.34-1.1-0.52-1.95-0.52c-0.69,0-1.35,0.15-1.98,0.46c-0.63,0.3-1.23,0.71-1.78,1.23
			c-0.55,0.51-1.07,1.08-1.55,1.71v18.06H265.28z"/>
		<path class="st0" d="M306.93,200.24l6.35,0.67v35.63h-5.63l-0.38-3.01c-0.79,1.12-1.77,2.02-2.96,2.7
			c-1.19,0.68-2.57,1.02-4.14,1.02c-2.15,0-3.92-0.56-5.33-1.68c-1.4-1.12-2.44-2.7-3.13-4.72c-0.68-2.03-1.02-4.39-1.02-7.08
			c0-2.6,0.4-4.9,1.2-6.92c0.8-2.02,1.96-3.61,3.47-4.76c1.52-1.15,3.31-1.73,5.4-1.73c1.25,0,2.39,0.22,3.41,0.65
			c1.03,0.43,1.94,1.07,2.74,1.92V200.24z M302.48,215.1c-1.6,0-2.87,0.69-3.79,2.08c-0.92,1.39-1.38,3.59-1.38,6.62
			c0,2.13,0.19,3.84,0.58,5.11c0.38,1.27,0.93,2.19,1.63,2.75c0.71,0.56,1.54,0.84,2.5,0.84c1.06,0,1.99-0.32,2.8-0.95
			c0.81-0.63,1.51-1.42,2.1-2.37V217.6c-0.59-0.79-1.25-1.4-1.98-1.84C304.22,215.32,303.39,215.1,302.48,215.1z"/>
		<path class="st0" d="M324.46,225.75c0.13,1.59,0.49,2.88,1.09,3.87s1.37,1.72,2.32,2.19c0.95,0.47,2,0.7,3.15,0.7
			c1.22,0,2.36-0.19,3.44-0.58c1.07-0.38,2.13-0.92,3.17-1.61l2.64,3.63c-1.19,0.99-2.6,1.8-4.24,2.4
			c-1.64,0.61-3.45,0.91-5.42,0.91c-2.76,0-5.08-0.57-6.96-1.71c-1.88-1.14-3.31-2.72-4.27-4.74c-0.96-2.02-1.44-4.34-1.44-6.97
			c0-2.53,0.47-4.82,1.42-6.85c0.95-2.03,2.31-3.65,4.09-4.84c1.78-1.19,3.93-1.79,6.44-1.79c2.34,0,4.36,0.51,6.06,1.54
			c1.7,1.03,3.01,2.5,3.94,4.41s1.4,4.22,1.4,6.91c0,0.43-0.01,0.87-0.04,1.32c-0.02,0.45-0.05,0.85-0.08,1.2H324.46z
			 M329.92,214.84c-1.54,0-2.8,0.55-3.79,1.65c-0.99,1.1-1.57,2.83-1.74,5.21h10.72c-0.03-2.15-0.48-3.83-1.33-5.04
			C332.92,215.44,331.63,214.84,329.92,214.84z"/>
	</g>
</g>
</svg>
