<?xml version="1.0" encoding="utf-8"?>
<!-- Generator: Adobe Illustrator 25.4.1, SVG Export Plug-In . SVG Version: 6.00 Build 0)  -->
<svg version="1.1" id="Layer_1" xmlns="http://www.w3.org/2000/svg" xmlns:xlink="http://www.w3.org/1999/xlink" x="0px" y="0px"
	 viewBox="0 0 500 500" style="enable-background:new 0 0 500 500;" xml:space="preserve">
<style type="text/css">
	.st0{fill:#FFFFFF;}
	.st1{fill:#004097;}
	.st2{fill:#00D2FF;}
</style>
<g>
	<g>
		<path class="st0" d="M304.05,131.26c-6.99,0.31-10.77,4.86-13.68,10.4c-5.62,10.71-10.06,21.92-14.01,33.34
			c-5.31,15.35-9.47,31.03-13.58,46.72c-9.98-1.49-13.16,0.46-19.08,9.06c-2.31,3.36-5.06,6.8-10.34,7.57
			c-11.45,1.67-20.96,7.55-27.6,17.09c-7.62,10.96-12.66,23.54-21.3,33.92c-6.11,7.34-11.97,14.72-21.53,17.87
			c-2.5,0.82-3.94,2.85-2.17,5.33c2.1,2.94,4.69,5.32,8.64,5.95c5.4,0.87,9.49-2.15,13.96-4.11c0.72-0.32,1.45-0.98,2.07-0.04
			c0.46,0.69-0.19,1.22-0.64,1.71c-3.17,3.47-6.39,6.87-10.77,8.87c-3.22,1.47-3.32,2.38-0.56,4.73c2.56,2.17,5.07,4.39,7.67,6.5
			c7.87,6.4,11.44,7.92,20.9-1.2c1.09-1.05,2.06-2.37,4.06-2.99c-0.42,4.72-2.94,8.25-4.6,12.08c-1.59,3.66-0.85,6.64,2.72,8.43
			c8.87,4.44,17.83,8.69,27.5,11.21c3.21,0.83,4.96-0.25,5.59-3.26c0.59-2.86,1.79-5.38,3.72-8.88c-0.28,3.39-0.65,5.64-0.62,7.88
			c0.04,3.26,0.95,6.45,4.59,7.14c3.92,0.75,7.83,1.71,11.9,1.75c5.54,0.06,5.96-0.13,6.97-5.77c0.93-5.21,2.38-10.26,4.62-15.13
			c0.29,4.93-0.24,9.83,0.68,14.69c0.39,2.06,1.03,3.83,2.66,5.24c2.58,2.24,5.43,1.3,8.02,0.49c2.79-0.87,1.35-3.38,1.17-5.22
			c-0.25-2.63-0.22-5.19,0.67-8.13c1.74,1.82,1.39,3.85,1.9,5.55c1.27,4.27,4.11,5.87,8.27,4.48c0.89-0.3,1.74-0.72,2.64-0.96
			c5.3-1.39,5.23-1.39,2.97-6.26c-5.69-12.31-6.39-25.01-2.55-37.97c1.63-5.51,3.53-10.94,5.19-16.44
			c4.29-14.19,2.8-27.67-6.28-39.55c-4.29-5.6-4.89-10.93-2.75-17.29c1.7-5.05,0.16-9.49-3.94-12.96c-1.01-0.86-2.28-1.47-2.72-2.87
			c11.18-22.29,21.89-44.8,29.7-68.55c1.84-5.58,4.16-11.08,4.1-17.12C318.12,136.89,311.7,130.92,304.05,131.26z"/>
		<path class="st0" d="M114.72,251.71c0,9.03,0.73,17.28,2.21,24.74c1.47,7.45,3.78,14.52,6.93,21.18
			c3.14,6.66,7.24,13.27,12.29,19.82c4.38,5.67,9.56,11.65,15.56,17.93c1.55,1.62,1.51,4.2-0.12,5.73l-9.42,8.8
			c-1.51,1.41-3.88,1.45-5.43,0.1c-9.54-8.31-17.82-16.95-24.87-25.92c-7.73-9.84-13.69-20.64-17.87-32.42s-6.28-25.09-6.28-39.95
			c0-14.85,2.09-28.18,6.28-39.99s10.14-22.62,17.87-32.42c7.05-8.95,15.34-17.57,24.87-25.88c1.55-1.35,3.92-1.31,5.43,0.1
			l9.43,8.8c1.63,1.53,1.66,4.1,0.12,5.72c-5.7,5.99-10.7,11.79-15.02,17.43c-5.02,6.55-9.15,13.2-12.4,19.93
			c-3.24,6.72-5.65,13.85-7.22,21.37C115.5,234.29,114.72,242.61,114.72,251.71z"/>
		<path class="st0" d="M385.28,251.71c0-9.1-0.79-17.42-2.36-24.94c-1.58-7.53-3.98-14.65-7.23-21.37
			c-3.24-6.73-7.37-13.37-12.39-19.93c-4.31-5.64-9.32-11.45-15.02-17.43c-1.54-1.62-1.51-4.19,0.12-5.72l9.43-8.8
			c1.51-1.41,3.87-1.45,5.43-0.1c9.53,8.3,17.83,16.93,24.88,25.88c7.73,9.8,13.68,20.61,17.87,32.42
			c4.18,11.81,6.27,25.14,6.27,39.99c0,14.85-2.09,28.17-6.27,39.95c-4.19,11.78-10.14,22.59-17.87,32.42
			c-7.05,8.97-15.34,17.61-24.87,25.92c-1.55,1.36-3.92,1.31-5.43-0.1l-9.42-8.79c-1.64-1.53-1.67-4.11-0.12-5.73
			c6-6.28,11.19-12.25,15.56-17.93c5.06-6.55,9.15-13.16,12.3-19.82c3.15-6.66,5.46-13.72,6.93-21.18
			C384.54,268.99,385.28,260.74,385.28,251.71z"/>
	</g>
</g>
</svg>
